<svg xmlns="http://www.w3.org/2000/svg" viewBox="0 0 153.88 153.89"><defs><style>.cls-1{fill:#59abe8;}.cls-2{fill:#e5e5e5;}.cls-3{fill:#2c65a8;}.cls-4{fill:#194d82;}.cls-5{fill:#68d8c4;}.cls-6{fill:none;stroke:#194d82;stroke-linecap:round;stroke-linejoin:round;stroke-width:4.38px;}.cls-7{fill:#facb61;}.cls-8{fill:#f7adad;}.cls-9{fill:#ea8c8c;}.cls-10{fill:#5f4e6d;}.cls-11{fill:#e5ad3e;}.cls-12{fill:#fdfdff;}</style></defs><title>Asset 5</title><g id="Layer_2" data-name="Layer 2"><g id="OBJECTS"><path class="cls-1" d="M93.86,4.92S60.3-15.41,19.32,26.55c-21,21.52-30.24,77.31.37,122.69a10.46,10.46,0,0,0,8.66,4.65H130a8.29,8.29,0,0,0,4.93-15C91.42,106.87,4.21,32.22,93.86,4.92Z"/><path class="cls-2" d="M107.17,90.66l-4.33-2.59c-1.76.14-2.9-1.08-3.15-2.84L98,73.92,92,44.71l9.62,3.4a7.83,7.83,0,0,1,5.14,6.31s3.39,12.78,3.86,17.15c.31,2.9-.07,11.67-.07,11.67C110.87,86.12,110.06,90.43,107.17,90.66Z"/><path class="cls-2" d="M41.59,69.09l.65.42a6.31,6.31,0,0,0,8.64-1.84l22-29.84-12.32-5a3.51,3.51,0,0,0-4,1.39L39.72,60.26A6.3,6.3,0,0,0,41.59,69.09Z"/><polygon class="cls-3" points="88.87 141.9 77.66 145.66 63.3 91.57 83.25 88.56 88.87 141.9"/><polygon class="cls-3" points="39.54 145.17 52.52 144.2 67.89 86.66 49.58 86.66 39.54 145.17"/><path class="cls-4" d="M27.05,153.88H51c1.21,0,2.27-.2,2.48-1.4l4-22.49H41.06l-2.93,12.32-6,1.9a12.14,12.14,0,0,0-6.58,5.07l-.53.84A2.45,2.45,0,0,0,27.05,153.88Z"/><path class="cls-4" d="M102.91,153.88H79c-1.21,0-2.27-.2-2.48-1.4l-4-22.49H88.9l2.92,12.32,6,1.9a12.11,12.11,0,0,1,6.57,5.07l.53.84A2.45,2.45,0,0,1,102.91,153.88Z"/><rect class="cls-5" x="39.54" y="127.03" width="19.46" height="5.93" rx="1.63"/><rect class="cls-5" x="70.96" y="127.03" width="19.46" height="5.93" rx="1.63" transform="translate(161.37 259.99) rotate(180)"/><polygon class="cls-3" points="80.06 96.44 49.33 88.43 57.18 62.7 65.57 35.2 99.88 47.55 80.06 96.44"/><polygon class="cls-2" points="57.6 61.33 87.6 77.84 99.88 47.55 65.57 35.2 57.6 61.33"/><path class="cls-3" d="M56.22,65.85l9.27-31,6.63,2.7L70.57,47.94a4.44,4.44,0,0,0,2.92,4.83L84.3,56.55a4.44,4.44,0,0,0,5.45-2.25L94,45.44l6.4,2.26L87.6,77.84Z"/><line class="cls-6" x1="29.09" y1="28.64" x2="128.4" y2="129.23"/><path class="cls-7" d="M141.79,127.75s14.32,13.83,11.79,22.51c-.91,3.11-11.47,3.15-10.73.1l-6.78-20.11Z"/><path class="cls-8" d="M86.35,49.48l-2,.45a7,7,0,0,1-6.78-2.14l-2-2.26A3.51,3.51,0,0,1,74.81,42l3.52-9.76L92.46,37.3l-3.58,9.93A3.53,3.53,0,0,1,86.35,49.48Z"/><path class="cls-9" d="M77.32,35A31.24,31.24,0,0,0,89.38,45.86l3.08-8.56-5.3-1.91-9.24-2Z"/><path class="cls-7" d="M98.29,79.79c3.26.08,9,.61,11.73.74a1.26,1.26,0,0,1,1.18,1.26l-.63,14.77a6.16,6.16,0,0,1-2.69,5.08c-3.14,2.16-7.22,4.83-10.93,4.12a2,2,0,0,1-1.13-.67l-4.2-3.66a2.54,2.54,0,0,1,.74-3.89l6.12-3.28-1.38.18-1.77-1.82a34.16,34.16,0,0,0,5.78-.67L96.78,81.61A1.5,1.5,0,0,1,98.29,79.79Z"/><path class="cls-9" d="M98.57,24.7h1.56a3.52,3.52,0,0,1,3.52,3.52v3.61a3.52,3.52,0,0,1-3.52,3.52H98.57a0,0,0,0,1,0,0V24.7A0,0,0,0,1,98.57,24.7Z" transform="translate(16.14 -32.46) rotate(19.79)"/><path class="cls-8" d="M86.93,7.92H98.18a5,5,0,0,1,5,5V36.25A4.14,4.14,0,0,1,99,40.39H85.42A3.46,3.46,0,0,1,82,36.93v-24a5,5,0,0,1,5-5Z" transform="translate(13.65 -29.92) rotate(19.79)"/><path class="cls-9" d="M105.84,18.53c-6-1.33-15.22-3.36-20.87-4.59l-1.72,4.78a138,138,0,0,0,20,7Z"/><path class="cls-8" d="M80.75,18.48H82.5a0,0,0,0,1,0,0V29.14a0,0,0,0,1,0,0H80.75A3.13,3.13,0,0,1,77.62,26V21.61A3.13,3.13,0,0,1,80.75,18.48Z" transform="translate(12.79 -25.7) rotate(19.79)"/><polygon class="cls-10" points="80.78 25.6 83.54 25.34 86.88 17.29 84.11 16.33 80.78 25.6"/><path class="cls-10" d="M99.71,30c.1,0,1.18,2.25,1.21,2.18L104.25,23,102,22.2Z"/><path class="cls-3" d="M86,9.73l-2.66,7.4,21.46,6.12,2.15-6a5.23,5.23,0,0,0-3.14-6.69l-11.12-4A5.22,5.22,0,0,0,86,9.73Z"/><path class="cls-5" d="M83.29,17.13l27,9.32a.78.78,0,0,0,1-.93h0a4.58,4.58,0,0,0-3.15-3.32L84.39,14.07Z"/><path class="cls-7" d="M41.45,44.71,38.37,63.16a1.16,1.16,0,0,0,1.21,1.34c3.53-.21,12.29-.77,12.49-1.06s-.78-16.32-.78-16.32Z"/><path class="cls-11" d="M40.6,49.84c.13,0,.25.08.39.1l10.9,7.24c-.22-4-.6-10.06-.6-10.06l-9.84-2.41Z"/><path class="cls-7" d="M40.4,34.71c-1.09,3.32-2.86,5.74-2.07,9.68a4.38,4.38,0,0,0,3.22,3.37l9.19,5.45a2.1,2.1,0,0,0,2.6-1.84l.72-11.92a2.49,2.49,0,0,0-1.79-2.63l-8.14-4.07A3,3,0,0,0,40.4,34.71Z"/><path class="cls-11" d="M137.11,153.89a24.15,24.15,0,0,0,6.23-2.07,7.16,7.16,0,0,0,3.38-8.94,28.54,28.54,0,0,0-10.65-13.65l-5,1.71s5.16,17.91-10,22.91l.19,0Z"/><path class="cls-7" d="M108.05,153.89h16.21a22,22,0,0,0,7.52-3.93c4.05-3.24,6.52-11.79,0-20.73l-9.1,5.1s3,10.24-10,13.71c-7.73,2.08-7.35,5-7.35,5A26.55,26.55,0,0,0,108.05,153.89Z"/><path class="cls-10" d="M120.33,134l1,1.55a1.94,1.94,0,0,0,2.41.75l18.93-8a1.94,1.94,0,0,0,.55-3.22l-2.1-1.92a3.91,3.91,0,0,0-4.08-.75l-14.83,5.93A3.91,3.91,0,0,0,120.33,134Z"/><path class="cls-12" d="M29.85,123.06A10.05,10.05,0,0,1,24,114.79a9.87,9.87,0,0,1-8.41,5.78A9.71,9.71,0,0,1,21.43,129,9.56,9.56,0,0,1,29.85,123.06Z"/><path class="cls-12" d="M42.1,97.41a8.7,8.7,0,0,1-7.35-4.75A8.5,8.5,0,0,1,29.87,100a8.4,8.4,0,0,1,7.38,4.86A8.3,8.3,0,0,1,42.1,97.41Z"/><path class="cls-12" d="M16.34,89.18a7.25,7.25,0,0,1-6.1-4,7.05,7.05,0,0,1-4,6.1,7,7,0,0,1,6.12,4A6.85,6.85,0,0,1,16.34,89.18Z"/><path class="cls-12" d="M45.46,80.65A4.83,4.83,0,0,1,43,76.45a4.74,4.74,0,0,1-4.26,2.42,4.65,4.65,0,0,1,2.44,4.25A4.6,4.6,0,0,1,45.46,80.65Z"/><path class="cls-12" d="M26.52,71.79A5.3,5.3,0,0,1,22.75,68a5.18,5.18,0,0,1-3.82,3.76,5.11,5.11,0,0,1,3.78,3.81A5,5,0,0,1,26.52,71.79Z"/><path class="cls-12" d="M27.47,53.32a4.5,4.5,0,0,1-3.84-2.38,4.4,4.4,0,0,1-2.44,3.84A4.33,4.33,0,0,1,25,57.21,4.27,4.27,0,0,1,27.47,53.32Z"/><path class="cls-12" d="M23.36,36.45a4.23,4.23,0,0,1-3.61-2.24,4.16,4.16,0,0,1-2.3,3.61,4.08,4.08,0,0,1,3.62,2.29A4,4,0,0,1,23.36,36.45Z"/><path class="cls-12" d="M61.06,16.59a3.28,3.28,0,0,1-2.8-1.74,3.22,3.22,0,0,1-1.79,2.81,3.17,3.17,0,0,1,2.82,1.77A3.12,3.12,0,0,1,61.06,16.59Z"/><path class="cls-12" d="M65.6,5.72A3.3,3.3,0,0,1,62.79,4,3.2,3.2,0,0,1,61,6.78a3.16,3.16,0,0,1,2.81,1.78A3.11,3.11,0,0,1,65.6,5.72Z"/><path class="cls-12" d="M38.8,19.26a4.1,4.1,0,0,1-3.51-2.18,4,4,0,0,1-2.24,3.52,3.93,3.93,0,0,1,3.52,2.22A3.92,3.92,0,0,1,38.8,19.26Z"/><path class="cls-12" d="M114.44,133.81a7.22,7.22,0,0,1-4.18-5.92,7.07,7.07,0,0,1-6,4.14,6.92,6.92,0,0,1,4.16,6A6.86,6.86,0,0,1,114.44,133.81Z"/><path class="cls-12" d="M99,118.42a5.75,5.75,0,0,1-5.47-1.89,5.63,5.63,0,0,1-2,5.49,5.55,5.55,0,0,1,5.5,2A5.48,5.48,0,0,1,99,118.42Z"/><path class="cls-12" d="M64.66,141.56a3.47,3.47,0,1,1-3.46-3.46A3.46,3.46,0,0,1,64.66,141.56Z"/><path class="cls-12" d="M13,103.13a1.73,1.73,0,1,1-1.73-1.73A1.73,1.73,0,0,1,13,103.13Z"/><path class="cls-12" d="M30.62,88.19a2.11,2.11,0,1,1-2.11-2.11A2.1,2.1,0,0,1,30.62,88.19Z"/><path class="cls-12" d="M33,62.93a1.56,1.56,0,1,1-1.55-1.56A1.55,1.55,0,0,1,33,62.93Z"/><circle class="cls-12" cx="12.39" cy="59.82" r="1.55"/><path class="cls-12" d="M12.39,47.47a1.17,1.17,0,1,1-1.17-1.17A1.17,1.17,0,0,1,12.39,47.47Z"/><path class="cls-12" d="M35.42,51.56a1.17,1.17,0,1,1-1.16-1.16A1.16,1.16,0,0,1,35.42,51.56Z"/><path class="cls-12" d="M9.49,73.56a1.73,1.73,0,1,1-1.73-1.73A1.73,1.73,0,0,1,9.49,73.56Z"/><circle class="cls-12" cx="30.74" cy="43.82" r="0.87"/><path class="cls-12" d="M46.1,22.2a.87.87,0,1,1-.87-.86A.87.87,0,0,1,46.1,22.2Z"/><path class="cls-12" d="M53.62,28.07a.87.87,0,1,1-.86-.86A.87.87,0,0,1,53.62,28.07Z"/><path class="cls-12" d="M73.31,8.18a.87.87,0,1,1-.87-.86A.87.87,0,0,1,73.31,8.18Z"/><path class="cls-12" d="M53,11.25a.87.87,0,1,1-.87-.87A.87.87,0,0,1,53,11.25Z"/><path class="cls-12" d="M37.72,115.92A1.73,1.73,0,1,1,36,114.18,1.74,1.74,0,0,1,37.72,115.92Z"/><path class="cls-12" d="M31.6,136.42a1.73,1.73,0,1,1-1.73-1.73A1.73,1.73,0,0,1,31.6,136.42Z"/><path class="cls-12" d="M100.58,136.36a1.74,1.74,0,1,1-1.74-1.73A1.73,1.73,0,0,1,100.58,136.36Z"/><path class="cls-12" d="M93.39,108.94a1.57,1.57,0,1,1-1.56-1.56A1.56,1.56,0,0,1,93.39,108.94Z"/><path class="cls-12" d="M67.79,120.25a1.57,1.57,0,1,1-1.56-1.56A1.56,1.56,0,0,1,67.79,120.25Z"/></g></g></svg>